<svg width="189" height="39" viewBox="0 0 189 39" fill="none" xmlns="http://www.w3.org/2000/svg">
<path d="M16.6253 29.5174C14.4196 28.7602 12.1687 28.6914 10.1221 29.3047C8.69531 29.7152 7.34029 30.4987 6.11483 31.4665L5.25932 32.2376L5.01579 32.4936L5.59021 32.9791C5.65265 32.9775 5.65422 33.04 5.71822 33.1008C5.84621 33.2226 5.97266 33.2819 6.1631 33.4021L6.54395 33.6426L6.91082 33.321C6.9717 33.257 7.09347 33.129 7.2168 33.0635C8.31738 32.0988 9.55062 31.4433 10.8541 31.0984C12.5291 30.6193 14.3415 30.6365 16.1694 31.2782C17.682 31.8028 20.7587 32.4134 24.4038 30.7605L24.5271 30.695L24.7098 30.503C24.7082 30.4405 24.7707 30.439 24.8316 30.375C25.1344 29.9925 25.4373 29.6101 25.6761 29.1668L26.8767 27.2L24.9066 28.3737C22.0124 30.0704 19.3352 30.4495 16.6253 29.5174Z" fill="#FACC15"/>
<path d="M7.90295 22.9877C9.57795 22.5086 11.3903 22.5258 13.2182 23.1675C15.235 23.867 20.3816 24.8008 25.997 19.475L26.9102 18.515L26.9711 18.451L27.2147 18.195L27.082 17.886C27.0133 17.6378 26.8807 17.3287 26.748 17.0196L26.414 16.1532L25.8051 16.7931C25.7458 16.9196 25.6225 16.9851 25.5007 17.1131C22.8234 19.9915 18.649 22.9696 13.735 21.3427C11.5294 20.5855 9.27837 20.5167 7.23183 21.13C5.24773 21.7418 3.52585 22.8469 1.93975 24.386L1.93819 24.3235L1.02649 25.3459C1.02804 25.4084 0.965615 25.4099 0.904731 25.4739L0.722068 25.6659L0.79074 25.9141C0.860966 26.2248 0.993629 26.5339 1.06386 26.8445L1.46342 27.8342L2.06759 27.0069C2.12691 26.8805 2.25023 26.8149 2.30956 26.6885C3.59124 25.4694 5.35999 23.7384 7.90295 22.9877Z" fill="#FACC15"/>
<path d="M1.81759 22.0153C3.21636 20.4809 4.81646 19.5038 6.55235 18.9607C8.22736 18.4815 10.0397 18.4988 11.8676 19.1405C17.5387 21.0609 22.325 17.5677 24.4029 15.704L25.1943 14.872L25.5003 14.6144L25.2412 14.246C25.0492 14.0634 24.9181 13.8167 24.7246 13.5716L24.3375 13.0814L23.9113 13.5294C23.8504 13.5934 23.7286 13.7214 23.6677 13.7854C21.1075 16.3484 17.1127 19.0097 12.4484 17.3766C10.2428 16.6194 7.99177 16.5505 5.94523 17.1639C4.64332 17.5712 3.41006 18.2268 2.18148 19.0696L0.896687 20.1638C0.774919 20.2918 0.714036 20.3558 0.592267 20.4838L0.470511 20.6118L0.475182 20.7991C0.42364 21.2378 0.434531 21.6749 0.381432 22.0511L0.357912 23.6137L1.39139 22.4632C1.51316 22.3352 1.63338 22.1448 1.81759 22.0153Z" fill="#FACC15"/>
<path d="M18.5423 33.7189L18.4267 34.0967L18.5423 33.7189C18.3534 33.6612 18.227 33.6018 18.0381 33.5441C15.8324 32.7868 13.5814 32.718 11.5349 33.3314C11.1009 33.4671 10.6669 33.6029 10.2345 33.8011L8.75305 34.5254L8.38309 34.722L9.64281 35.128C10.0206 35.2435 10.3983 35.359 10.7761 35.4746L10.965 35.5324L11.1507 35.4652C11.3365 35.3981 11.5207 35.2686 11.708 35.2639C11.8329 35.2608 11.9562 35.1952 12.0796 35.1297C13.5688 34.7177 15.1923 34.6772 16.9546 35.1956C17.1435 35.2533 17.27 35.3127 17.4588 35.3704L17.7742 35.4875L17.9599 35.4204C18.3939 35.2846 18.8903 35.1473 19.2603 34.9506L20.993 34.2826L19.1714 33.8907C18.9825 33.8329 18.7312 33.7767 18.5423 33.7189Z" fill="#FACC15"/>
<path d="M27.7724 20.5548L26.8591 21.5148C26.7373 21.6428 26.6156 21.7707 26.4938 21.8987C23.9944 24.3978 19.9387 27.123 15.2745 25.4899C13.0688 24.7327 10.8178 24.6639 8.7713 25.2772C6.84965 25.8874 5.1262 26.9301 3.60254 28.4676L2.81261 29.362L2.57064 29.6804L2.82974 30.0489C3.02329 30.294 3.15285 30.4782 3.28396 30.7248L3.6726 31.2774L4.09568 30.7046C4.15657 30.6406 4.27833 30.5126 4.33922 30.4486C5.79732 28.7877 7.39587 27.7482 9.25665 27.202C10.9317 26.7228 12.744 26.7401 14.5719 27.3818C16.147 27.9049 17.7751 28.0517 19.3939 27.8239C22.2584 27.4401 25.0902 25.745 27.168 23.8813C27.2898 23.7533 27.4131 23.6877 27.5349 23.5597L27.7175 23.3677L27.7129 23.1804C27.7035 22.8058 27.7551 22.3671 27.7457 21.9925L27.7724 20.5548Z" fill="#FACC15"/>
<path d="M3.90243 15.402L3.70578 15.032L3.90243 15.402C4.27241 15.2053 4.7064 15.0695 5.07793 14.9353C6.75294 14.4562 8.56528 14.4735 10.3932 15.1152C11.5905 15.5227 12.7815 15.6804 14.0928 15.6477C16.7153 15.5823 19.3145 14.5803 21.7045 12.7088L22.6224 11.9362L22.9284 11.6786L22.3555 11.2556C22.1636 11.0729 21.9091 10.8918 21.6562 10.7732L21.2754 10.5327L20.9694 10.7903C20.8461 10.8558 20.7867 10.9823 20.6634 11.0478C17.4163 13.628 14.1241 14.3974 10.9725 13.2888C8.70434 12.5332 6.45178 12.4019 4.22103 13.1448C4.03527 13.2119 3.8495 13.279 3.60129 13.3477L3.47798 13.4132L3.29532 13.6052C3.29687 13.6677 3.23444 13.6692 3.17356 13.7332C2.93314 14.1141 2.62871 14.4341 2.38828 14.815L1.24706 16.6553L3.15782 15.608C3.47003 15.6002 3.71667 15.4691 3.90243 15.402Z" fill="#FACC15"/>
<path d="M8.91659 11.0288L9.10547 11.0866C9.92498 11.3786 11.1816 11.6596 12.7426 11.6207C14.3661 11.5802 15.9178 11.1667 17.4632 10.5033L19.3755 9.51845L18.0534 9.11407C17.6756 8.99853 17.2979 8.88299 16.8592 8.83145L16.6719 8.83612L16.4861 8.90322C16.3004 8.97033 16.1161 9.0999 15.9304 9.16701C14.0743 9.90057 12.2042 10.0722 10.3809 9.61778C10.192 9.56001 10.0032 9.50223 9.81428 9.44446L9.62541 9.38669L9.43964 9.4538C9.0681 9.58803 8.69658 9.72226 8.3266 9.91892L6.90602 10.5791L8.41552 10.9789C8.53884 10.9133 8.72771 10.9711 8.91659 11.0288Z" fill="#FACC15"/>
<ellipse cx="14.3909" cy="22.4832" rx="10.1834" ry="10.1834" fill="#0F0E11"/>
<path d="M30.3929 10.3603L7.70671 33.519C7.36579 33.867 6.82369 33.9187 6.42314 33.6414L3.96454 31.9393L2.91147 30.1842C2.67539 29.7907 2.73739 29.2871 3.06186 28.9626L11.2587 20.7658C11.6492 20.3753 12.2824 20.3753 12.6729 20.7658L13.1923 21.2852C13.5852 21.6781 14.223 21.6754 14.6125 21.2792L27.9683 7.69319L26.4261 6.15105C25.8522 5.57719 26.1649 4.59479 26.9649 4.45821L33.6138 3.32303C34.2918 3.20727 34.8816 3.7947 34.7685 4.47316L33.6219 11.3531C33.4882 12.1554 32.5035 12.4709 31.9284 11.8958L30.3929 10.3603Z" fill="#FACC15"/>
<path d="M47.4438 30V10.26H56.0958C58.2424 10.26 59.8944 10.7173 61.0518 11.632C62.2091 12.528 62.7878 13.7787 62.7878 15.384C62.7878 16.5787 62.4331 17.5867 61.7238 18.408C61.0144 19.2293 60.0344 19.78 58.7838 20.06V19.64C60.2211 19.8453 61.3318 20.368 62.1158 21.208C62.9184 22.0293 63.3198 23.1213 63.3198 24.484C63.3198 26.2387 62.7131 27.6013 61.4998 28.572C60.2864 29.524 58.5971 30 56.4318 30H47.4438ZM50.9158 27.256H56.0118C57.2251 27.256 58.1678 27.032 58.8398 26.584C59.5118 26.1173 59.8478 25.3613 59.8478 24.316C59.8478 23.252 59.5118 22.496 58.8398 22.048C58.1678 21.5813 57.2251 21.348 56.0118 21.348H50.9158V27.256ZM50.9158 18.632H55.4798C56.7678 18.632 57.7198 18.3987 58.3358 17.932C58.9704 17.4467 59.2878 16.7373 59.2878 15.804C59.2878 14.8707 58.9704 14.1707 58.3358 13.704C57.7198 13.2187 56.7678 12.976 55.4798 12.976H50.9158V18.632ZM71.9558 30.28C70.7238 30.28 69.6411 29.9907 68.7078 29.412C67.7745 28.8147 67.0465 27.9653 66.5238 26.864C66.0011 25.7627 65.7398 24.4467 65.7398 22.916C65.7398 21.3853 66.0011 20.0787 66.5238 18.996C67.0465 17.8947 67.7745 17.0547 68.7078 16.476C69.6411 15.8787 70.7238 15.58 71.9558 15.58C73.1505 15.58 74.1958 15.8787 75.0918 16.476C76.0065 17.0547 76.6131 17.8387 76.9118 18.828H76.6038L76.9118 15.86H80.2718C80.2158 16.4387 80.1598 17.0267 80.1038 17.624C80.0665 18.2213 80.0478 18.8093 80.0478 19.388V30H76.5758L76.5478 27.088H76.8838C76.5851 28.0587 75.9785 28.8333 75.0638 29.412C74.1491 29.9907 73.1131 30.28 71.9558 30.28ZM72.9358 27.592C74.0371 27.592 74.9238 27.2093 75.5958 26.444C76.2678 25.66 76.6038 24.484 76.6038 22.916C76.6038 21.348 76.2678 20.1813 75.5958 19.416C74.9238 18.6507 74.0371 18.268 72.9358 18.268C71.8345 18.268 70.9478 18.6507 70.2758 19.416C69.6038 20.1813 69.2678 21.348 69.2678 22.916C69.2678 24.484 69.5945 25.66 70.2478 26.444C70.9198 27.2093 71.8158 27.592 72.9358 27.592ZM83.8591 30V9.392H87.3591V30H83.8591ZM96.6199 30.28C95.3879 30.28 94.3052 29.9907 93.3719 29.412C92.4385 28.8147 91.7105 27.9653 91.1879 26.864C90.6652 25.7627 90.4039 24.4467 90.4039 22.916C90.4039 21.3853 90.6652 20.0787 91.1879 18.996C91.7105 17.8947 92.4385 17.0547 93.3719 16.476C94.3052 15.8787 95.3879 15.58 96.6199 15.58C97.8145 15.58 98.8599 15.8787 99.7559 16.476C100.671 17.0547 101.277 17.8387 101.576 18.828H101.268L101.576 15.86H104.936C104.88 16.4387 104.824 17.0267 104.768 17.624C104.731 18.2213 104.712 18.8093 104.712 19.388V30H101.24L101.212 27.088H101.548C101.249 28.0587 100.643 28.8333 99.7279 29.412C98.8132 29.9907 97.7772 30.28 96.6199 30.28ZM97.5999 27.592C98.7012 27.592 99.5879 27.2093 100.26 26.444C100.932 25.66 101.268 24.484 101.268 22.916C101.268 21.348 100.932 20.1813 100.26 19.416C99.5879 18.6507 98.7012 18.268 97.5999 18.268C96.4985 18.268 95.6119 18.6507 94.9399 19.416C94.2679 20.1813 93.9319 21.348 93.9319 22.916C93.9319 24.484 94.2585 25.66 94.9119 26.444C95.5839 27.2093 96.4799 27.592 97.5999 27.592ZM108.523 30V19.388C108.523 18.8093 108.504 18.2213 108.467 17.624C108.43 17.0267 108.374 16.4387 108.299 15.86H111.687L111.967 18.66H111.631C112.079 17.6707 112.742 16.9147 113.619 16.392C114.496 15.8507 115.514 15.58 116.671 15.58C118.332 15.58 119.583 16.0467 120.423 16.98C121.263 17.9133 121.683 19.3693 121.683 21.348V30H118.183V21.516C118.183 20.3773 117.959 19.5653 117.511 19.08C117.082 18.576 116.428 18.324 115.551 18.324C114.468 18.324 113.61 18.66 112.975 19.332C112.34 20.004 112.023 20.9 112.023 22.02V30H108.523ZM131.89 30.28C130.434 30.28 129.156 29.9813 128.054 29.384C126.972 28.7867 126.132 27.9373 125.534 26.836C124.937 25.716 124.638 24.3907 124.638 22.86C124.638 21.3293 124.937 20.0227 125.534 18.94C126.15 17.8573 127 17.0267 128.082 16.448C129.165 15.8693 130.434 15.58 131.89 15.58C132.824 15.58 133.729 15.7293 134.606 16.028C135.502 16.308 136.23 16.7187 136.79 17.26L135.726 19.696C135.222 19.2293 134.653 18.884 134.018 18.66C133.402 18.4173 132.796 18.296 132.198 18.296C130.948 18.296 129.968 18.688 129.258 19.472C128.568 20.256 128.222 21.3947 128.222 22.888C128.222 24.3813 128.568 25.5293 129.258 26.332C129.968 27.1347 130.948 27.536 132.198 27.536C132.777 27.536 133.374 27.424 133.99 27.2C134.625 26.976 135.204 26.6307 135.726 26.164L136.79 28.572C136.212 29.1133 135.474 29.5333 134.578 29.832C133.701 30.1307 132.805 30.28 131.89 30.28ZM146.062 30.28C143.692 30.28 141.834 29.6267 140.49 28.32C139.146 27.0133 138.474 25.2213 138.474 22.944C138.474 21.4693 138.764 20.1813 139.342 19.08C139.921 17.9787 140.724 17.12 141.75 16.504C142.796 15.888 144.009 15.58 145.39 15.58C146.753 15.58 147.892 15.8693 148.806 16.448C149.721 17.0267 150.412 17.8387 150.878 18.884C151.364 19.9293 151.606 21.152 151.606 22.552V23.476H141.302V21.628H149.114L148.638 22.02C148.638 20.7133 148.358 19.7147 147.798 19.024C147.257 18.3333 146.464 17.988 145.418 17.988C144.261 17.988 143.365 18.3987 142.73 19.22C142.114 20.0413 141.806 21.1893 141.806 22.664V23.028C141.806 24.5587 142.18 25.7067 142.926 26.472C143.692 27.2187 144.765 27.592 146.146 27.592C146.949 27.592 147.696 27.4893 148.386 27.284C149.096 27.06 149.768 26.7053 150.402 26.22L151.438 28.572C150.766 29.1133 149.964 29.5333 149.03 29.832C148.097 30.1307 147.108 30.28 146.062 30.28ZM154.178 30V26.108H158.098V30H154.178ZM166.893 30.28C165.661 30.28 164.579 29.9907 163.645 29.412C162.712 28.8147 161.984 27.9653 161.461 26.864C160.939 25.7627 160.677 24.4467 160.677 22.916C160.677 21.3853 160.939 20.0787 161.461 18.996C161.984 17.8947 162.712 17.0547 163.645 16.476C164.579 15.8787 165.661 15.58 166.893 15.58C168.088 15.58 169.133 15.8787 170.029 16.476C170.944 17.0547 171.551 17.8387 171.849 18.828H171.541L171.849 15.86H175.209C175.153 16.4387 175.097 17.0267 175.041 17.624C175.004 18.2213 174.985 18.8093 174.985 19.388V30H171.513L171.485 27.088H171.821C171.523 28.0587 170.916 28.8333 170.001 29.412C169.087 29.9907 168.051 30.28 166.893 30.28ZM167.873 27.592C168.975 27.592 169.861 27.2093 170.533 26.444C171.205 25.66 171.541 24.484 171.541 22.916C171.541 21.348 171.205 20.1813 170.533 19.416C169.861 18.6507 168.975 18.268 167.873 18.268C166.772 18.268 165.885 18.6507 165.213 19.416C164.541 20.1813 164.205 21.348 164.205 22.916C164.205 24.484 164.532 25.66 165.185 26.444C165.857 27.2093 166.753 27.592 167.873 27.592ZM178.797 30V15.86H182.297V30H178.797ZM178.601 13.2V9.784H182.493V13.2H178.601Z" fill="white"/>
</svg>
