<svg width="73" height="68" viewBox="0 0 73 68" fill="none" xmlns="http://www.w3.org/2000/svg">
<path d="M34.2841 54.5072C29.7356 52.9456 25.0936 52.8037 20.8733 54.0686C17.931 54.915 15.1367 56.5308 12.6096 58.5265L10.8453 60.1166L10.3431 60.6445L11.5277 61.6457C11.6565 61.6425 11.6597 61.7713 11.7917 61.8968C12.0556 62.1479 12.3164 62.2703 12.7091 62.5182L13.4945 63.014L14.251 62.3509C14.3766 62.2189 14.6277 61.955 14.882 61.8198C17.1516 59.8305 19.6948 58.4787 22.3828 57.7674C25.837 56.7794 29.5743 56.815 33.3438 58.1383C36.4631 59.2201 42.8079 60.4792 50.3247 57.0707L50.579 56.9355L50.9557 56.5396C50.9525 56.4108 51.0813 56.4076 51.2068 56.2756C51.8314 55.487 52.4559 54.6983 52.9485 53.7841L55.4243 49.7282L51.3616 52.1487C45.3931 55.6475 39.8723 56.4294 34.2841 54.5072Z" fill="#FACC15"/>
<path d="M16.2964 41.0408C19.7506 40.0528 23.488 40.0885 27.2575 41.4118C31.4165 42.8542 42.0297 44.7799 53.6096 33.7971L55.4929 31.8174L55.6185 31.6854L56.1207 31.1576L55.8471 30.5202C55.7055 30.0083 55.4319 29.3709 55.1583 28.7335L54.4695 26.9468L53.214 28.2666C53.0916 28.5273 52.8373 28.6625 52.5862 28.9265C47.0651 34.8621 38.4568 41.0037 28.3232 37.6487C23.7747 36.0871 19.1328 35.9452 14.9125 37.21C10.8209 38.4716 7.27005 40.7505 3.99923 43.9244L3.99602 43.7956L2.11593 45.904C2.11914 46.0328 1.9904 46.036 1.86484 46.168L1.48816 46.5639L1.62977 47.0757C1.77459 47.7163 2.04817 48.3537 2.19298 48.9943L3.01695 51.0353L4.26286 49.3293C4.3852 49.0686 4.63951 48.9334 4.76185 48.6726C7.40491 46.1587 11.0524 42.5889 16.2964 41.0408Z" fill="#FACC15"/>
<path d="M3.74865 39.0348C6.63318 35.8706 9.93287 33.8557 13.5126 32.7357C16.9668 31.7476 20.7041 31.7833 24.4736 33.1066C36.1684 37.0668 46.0387 29.8631 50.3236 26.0198L51.9557 24.3041L52.5867 23.773L52.0524 23.0132C51.6565 22.6366 51.3861 22.1279 50.987 21.6225L50.1887 20.6116L49.3098 21.5355C49.1843 21.6675 48.9332 21.9314 48.8076 22.0634C43.5279 27.3488 35.2899 32.8369 25.6714 29.4691C21.1229 27.9075 16.4809 27.7656 12.2606 29.0304C9.57582 29.8704 7.03262 31.2223 4.49907 32.9604L1.84959 35.2169C1.59849 35.4808 1.47293 35.6128 1.22182 35.8767L0.97074 36.1407L0.980373 36.527C0.874084 37.4315 0.896544 38.3329 0.787044 39.1087L0.738541 42.331L2.86976 39.9586C3.12087 39.6947 3.36878 39.302 3.74865 39.0348Z" fill="#FACC15"/>
<path d="M38.2364 63.1709L37.9981 63.9499L38.2364 63.1709C37.8469 63.0517 37.5862 62.9294 37.1967 62.8102C32.6482 61.2487 28.0062 61.1068 23.7859 62.3716C22.8909 62.6516 21.996 62.9316 21.1043 63.3404L18.0493 64.8338L17.2863 65.2394L19.8841 66.0765C20.6631 66.3148 21.4421 66.5531 22.2211 66.7913L22.6106 66.9105L22.9937 66.7721C23.3768 66.6337 23.7567 66.3665 24.1429 66.3569C24.4005 66.3504 24.6548 66.2153 24.9091 66.0801C27.9802 65.2304 31.3281 65.1469 34.9624 66.2159C35.3519 66.3351 35.6126 66.4574 36.0021 66.5766L36.6524 66.818L37.0355 66.6796C37.9304 66.3996 38.9541 66.1164 39.717 65.7109L43.2903 64.3333L39.5337 63.525C39.1442 63.4059 38.6259 63.29 38.2364 63.1709Z" fill="#FACC15"/>
<path d="M57.2724 36.0248L55.3891 38.0044C55.138 38.2683 54.8869 38.5323 54.6358 38.7962C49.4817 43.9497 41.1181 49.5697 31.4996 46.2019C26.9511 44.6403 22.3091 44.4984 18.0888 45.7633C14.126 47.0217 10.5719 49.1718 7.42987 52.3424L5.8009 54.1869L5.3019 54.8435L5.83621 55.6033C6.23535 56.1087 6.50253 56.4886 6.7729 56.9972L7.57435 58.1368L8.44683 56.9555C8.57238 56.8235 8.82348 56.5595 8.94903 56.4276C11.9559 53.0026 15.2524 50.8589 19.0897 49.7325C22.5438 48.7444 26.2812 48.7801 30.0507 50.1034C33.2987 51.182 36.6562 51.4848 39.9945 51.0151C45.9016 50.2235 51.7413 46.728 56.0262 42.8846C56.2773 42.6207 56.5316 42.4855 56.7827 42.2215L57.1594 41.8256L57.1497 41.4393C57.1305 40.6667 57.2368 39.7622 57.2175 38.9896L57.2724 36.0248Z" fill="#FACC15"/>
<path d="M8.04754 25.3988L7.642 24.6358L8.04754 25.3988C8.81049 24.9932 9.70546 24.7132 10.4716 24.4364C13.9258 23.4483 17.6632 23.484 21.4327 24.8073C23.9017 25.6476 26.3578 25.9729 29.0619 25.9055C34.47 25.7707 39.8299 23.7043 44.7586 19.8449L46.6516 18.2516L47.2825 17.7205L46.1012 16.848C45.7053 16.4714 45.1806 16.0979 44.6591 15.8532L43.8737 15.3575L43.2427 15.8886C42.9884 16.0237 42.866 16.2845 42.6117 16.4197C35.9156 21.7404 29.1264 23.327 22.6272 21.041C17.9499 19.4827 13.3048 19.212 8.70455 20.744C8.32146 20.8824 7.93838 21.0207 7.42653 21.1623L7.17224 21.2975L6.79555 21.6935C6.79876 21.8222 6.67002 21.8254 6.54447 21.9574C6.04868 22.7428 5.42088 23.4027 4.92509 24.1882L2.57168 27.9833L6.51202 25.8236C7.15584 25.8075 7.66446 25.5372 8.04754 25.3988Z" fill="#FACC15"/>
<path d="M18.3873 16.3795L18.7768 16.4987C20.4668 17.1007 23.0581 17.6803 26.2773 17.6001C29.6251 17.5166 32.825 16.6637 36.012 15.2958L39.9555 13.2648L37.229 12.4309C36.45 12.1926 35.671 11.9544 34.7664 11.8481L34.3801 11.8577L33.997 11.9961C33.614 12.1345 33.2341 12.4017 32.851 12.5401C29.0234 14.0528 25.1669 14.4067 21.407 13.4697C21.0175 13.3505 20.628 13.2314 20.2385 13.1122L19.849 12.9931L19.4659 13.1315C18.6997 13.4083 17.9336 13.6851 17.1706 14.0907L14.2411 15.4522L17.354 16.2764C17.6083 16.1412 17.9978 16.2604 18.3873 16.3795Z" fill="#FACC15"/>
<circle cx="29.6768" cy="40" r="21" fill="#0F0E11"/>
<path d="M62.6768 15L15.2669 63.3975C14.926 63.7456 14.3839 63.7973 13.9834 63.52L8.17676 59.5L5.57846 55.1695C5.34238 54.776 5.40438 54.2724 5.72885 53.9479L23.9697 35.7071C24.3602 35.3166 24.9933 35.3166 25.3839 35.7071L27.9636 38.2868C28.3565 38.6797 28.9943 38.677 29.3838 38.2808L57.6768 9.5L53.0442 4.86739C52.4703 4.29353 52.783 3.31113 53.583 3.17455L70.7909 0.236602C71.469 0.120844 72.0587 0.708272 71.9456 1.38674L68.9962 19.0833C68.8625 19.8856 67.8779 20.2011 67.3027 19.626L62.6768 15Z" fill="#FACC15"/>
</svg>
